<svg width="9" height="21" viewBox="0 0 9 21" fill="none" xmlns="http://www.w3.org/2000/svg">
<path d="M7.67574 21H2.05074C1.32701 21 0.738281 20.4113 0.738281 19.6875V8.0625C0.738281 7.33878 1.32701 6.75005 2.05074 6.75005H7.67574C8.3996 6.75005 8.98833 7.33878 8.98833 8.0625V19.6875C8.98833 20.4113 8.3996 21 7.67574 21ZM2.05074 7.87505C1.94733 7.87505 1.86328 7.95895 1.86328 8.0625V19.6875C1.86328 19.791 1.94733 19.875 2.05074 19.875H7.67574C7.77928 19.875 7.86333 19.791 7.86333 19.6875V8.0625C7.86333 7.95895 7.77928 7.87505 7.67574 7.87505H2.05074Z" fill="black"/>
<path d="M7.67574 21H2.05074C1.32701 21 0.738281 20.4113 0.738281 19.6875V8.0625C0.738281 7.33878 1.32701 6.75005 2.05074 6.75005H7.67574C8.3996 6.75005 8.98833 7.33878 8.98833 8.0625V19.6875C8.98833 20.4113 8.3996 21 7.67574 21ZM2.05074 7.87505C1.94733 7.87505 1.86328 7.95895 1.86328 8.0625V19.6875C1.86328 19.791 1.94733 19.875 2.05074 19.875H7.67574C7.77928 19.875 7.86333 19.791 7.86333 19.6875V8.0625C7.86333 7.95895 7.77928 7.87505 7.67574 7.87505H2.05074Z" fill="black"/>
<path d="M7.67574 21H2.05074C1.32701 21 0.738281 20.4113 0.738281 19.6875V8.0625C0.738281 7.33878 1.32701 6.75005 2.05074 6.75005H7.67574C8.3996 6.75005 8.98833 7.33878 8.98833 8.0625V19.6875C8.98833 20.4113 8.3996 21 7.67574 21ZM2.05074 7.87505C1.94733 7.87505 1.86328 7.95895 1.86328 8.0625V19.6875C1.86328 19.791 1.94733 19.875 2.05074 19.875H7.67574C7.77928 19.875 7.86333 19.791 7.86333 19.6875V8.0625C7.86333 7.95895 7.77928 7.87505 7.67574 7.87505H2.05074Z" fill="black"/>
<path d="M8.42583 14.4375H1.30078C0.99028 14.4375 0.738281 14.1855 0.738281 13.875C0.738281 13.5645 0.99028 13.3125 1.30078 13.3125H8.42583C8.73633 13.3125 8.98833 13.5645 8.98833 13.875C8.98833 14.1855 8.73633 14.4375 8.42583 14.4375Z" fill="black"/>
<path d="M4.86322 21C4.55272 21 4.30072 20.87 4.30072 20.7099V13.9402C4.30072 13.78 4.55272 13.6501 4.86322 13.6501C5.17372 13.6501 5.42572 13.78 5.42572 13.9402V20.7099C5.42572 20.87 5.17372 21 4.86322 21Z" fill="black"/>
<path d="M4.86322 0.839417C5.00124 0.839417 5.13926 0.889679 5.2472 0.991028L8.0597 3.61594C8.22847 3.77345 8.28396 4.01872 8.19922 4.23323C8.11449 4.44774 7.90671 4.58946 7.67572 4.58946L2.05072 4.58946C1.81974 4.58946 1.61196 4.44843 1.52723 4.23323C1.44249 4.0179 1.49797 3.77345 1.66675 3.61594L4.47925 0.991028C4.58719 0.889679 4.72521 0.839417 4.86322 0.839417ZM6.24846 3.46446L4.86322 2.17151L3.47799 3.46446L6.24846 3.46446Z" fill="black"/>
</svg>
